# xmcd CD database file
#
# Track frame offsets:
#	150
#	39502
#	56113
#	69347
#	88649
#	106566
#	124783
#	144283
#	163045
#	181162
#	196136
#	234108
#	247129
#	266664
#	279628
#	302238
#	317780
#
# Disc length: 4779 seconds
#
# Revision: 1
# Processed by: cddbd v1.5.2PL0 Copyright (c) Steve Scherf et al.
# Submitted via: CDex 1.81
#
DISCID=e812a911
DTITLE=BestJazz100-PremiumStandards - Best Jazz 100 Premium Standards 4 - Cinema Standards
DYEAR=2000
DGENRE=Jazz
TTITLE0=No Problem
TTITLE1=I Wanna Be Loved By You
TTITLE2=On The Street Where You Live
TTITLE3=My Favorite Things
TTITLE4=Over The Rainbow
TTITLE5=Cool
TTITLE6=The Shadow Of Your Smile
TTITLE7=Last Tango In Paris
TTITLE8=As Time Goes By
TTITLE9=The Days Of Wine And Roses
TTITLE10=Manha De Carnaval
TTITLE11=Singin' In The Rain
TTITLE12=Love Is A Many-Splendored Thing
TTITLE13=Moon River
TTITLE14=Smile
TTITLE15=Charade
TTITLE16=I Will Wait For You
EXTD=YEAR: 2000
EXTT0=
EXTT1=
EXTT2=
EXTT3=
EXTT4=
EXTT5=
EXTT6=
EXTT7=
EXTT8=
EXTT9=
EXTT10=
EXTT11=
EXTT12=
EXTT13=
EXTT14=
EXTT15=
EXTT16=
PLAYORDER=
